# xmcd CD database file
#
# Track frame offsets:
#	150
#	12353
#	25187
#	35679
#	45510
#	58433
#	70506
#	84095
#	98649
#	111605
#	122644
#	134353
#	147182
#	164347
#
# Disc length: 2376 seconds
#
# Revision: 0
# Processed by: cddbd v1.5.2PL0 Copyright (c) Steve Scherf et al.
# Submitted via: CDex 1.51
#
DISCID=bc09460e
DTITLE=Carl Perkins - Forever Gold
DYEAR=2001
DGENRE=Country
TTITLE0=Matchbox
TTITLE1=Disciple In Blue Suede Shoes
TTITLE2=Jailhouse Rock
TTITLE3=All Shook Up
TTITLE4=Boppin The Blues
TTITLE5=Lucille
TTITLE6=Country Soul
TTITLE7=Redneck
TTITLE8=We Did It In 54
TTITLE9=Dixie Fried
TTITLE10=Born To Boogie
TTITLE11=Take Me Back
TTITLE12=Sweeter Than Candy
TTITLE13=Rock Island Line
EXTD=YEAR: 2001
EXTT0=
EXTT1=
EXTT2=
EXTT3=
EXTT4=
EXTT5=
EXTT6=
EXTT7=
EXTT8=
EXTT9=
EXTT10=
EXTT11=
EXTT12=
EXTT13=
PLAYORDER=
